<svg width="500" height="500" viewBox="0 0 500 500" fill="none" xmlns="http://www.w3.org/2000/svg">
<path d="M250 0C111.929 0 0 111.929 0 250C0 291.423 10.1354 330.457 27.9679 364.858L199.549 117.903H314.83C343.214 117.903 368.88 129.403 387.477 147.973C407.573 168.098 419.39 196.535 417.311 227.666C413.692 281.844 367.492 323.363 313.194 323.363L147.303 329.357L76.7948 430.182C121.731 473.388 182.739 500 250 500C388.071 500 500 388.071 500 250C500 111.929 388.071 0 250 0Z" fill="#155DFC"/>
<path d="M306.032 283.177C299.233 265.035 293.109 248.692 285.732 229.007C274.587 244.679 264.615 257.796 255.698 271.596C250.77 279.222 245.369 281.249 236.608 279.48C219.872 276.1 202.91 273.835 185.814 271.071C193.706 248.537 199.913 244.235 220.194 242.509C225.909 242.022 232.713 238.402 236.468 234.029C245.156 223.912 252.285 212.457 261.83 199.036C243.533 198.404 227.675 197.856 210.208 197.252C217.08 181.856 223.871 169.103 241.939 169.439C277.225 170.095 294.208 148.815 316.732 122.397C323.038 115.001 327.654 107.778 334.258 101.611C347.207 89.5218 359.205 90.1807 374.762 103.829C359.092 125.863 343.943 148.583 327.228 170.086C318.46 181.366 315.777 192.264 319.408 205.781C321.891 215.024 321.725 225.065 324.796 234.047C332.002 255.122 319.698 267.883 306.032 283.177Z" fill="#FFB900"/>
<path d="M353.746 89.1573C361.591 89.587 369.3 93.8257 377.346 100.885L380.004 103.217L377.954 106.097C362.376 128 347.102 150.9 330.321 172.488C326.194 177.798 323.642 182.828 322.487 187.956C321.335 193.064 321.512 198.517 323.19 204.765C324.512 209.685 325.122 214.803 325.76 219.482C326.413 224.278 327.103 228.691 328.501 232.781C332.466 244.378 331.062 253.926 326.739 262.538C322.567 270.847 315.642 278.298 308.95 285.786L304.637 290.616L302.366 284.551C296.374 268.561 290.903 253.97 284.639 237.255C275.156 250.431 266.698 261.786 258.985 273.722C256.263 277.936 253.122 281.045 249.059 282.689C245.016 284.325 240.617 284.282 235.832 283.316C219.194 279.956 202.43 277.722 185.191 274.935L180.572 274.189L182.12 269.776C186.085 258.457 189.896 250.799 195.893 245.943C201.955 241.034 209.639 239.479 219.861 238.609C224.498 238.214 230.373 235.114 233.496 231.478C240.763 223.015 246.828 213.719 254.477 202.696C239.129 202.166 225.204 201.69 210.072 201.167L204.264 200.964L206.63 195.657C210.042 188.014 213.694 180.372 219.035 174.748C224.592 168.896 231.858 165.337 242.012 165.525C275.169 166.142 290.998 146.547 313.753 119.858C316.844 116.232 319.457 112.723 322.311 109.113C325.115 105.566 328.067 102.038 331.587 98.7511C338.516 92.2812 345.745 88.7191 353.746 89.1573ZM353.317 96.9769C348.193 96.6963 342.948 98.8557 336.929 104.475C333.846 107.354 331.186 110.519 328.455 113.973C325.773 117.366 322.924 121.167 319.71 124.936C297.418 151.083 279.28 174.048 241.866 173.353C233.952 173.206 228.786 175.854 224.713 180.144C221.445 183.586 218.819 188.14 216.224 193.542C231.435 194.068 245.741 194.564 261.964 195.125L269.237 195.374L265.019 201.304C255.662 214.461 248.279 226.284 239.438 236.578C235.051 241.687 227.318 245.831 220.526 246.409C210.467 247.265 204.906 248.723 200.822 252.03C197.257 254.917 194.367 259.576 191.133 267.941C206.553 270.367 222.102 272.556 237.385 275.642C241.36 276.445 244.043 276.273 246.122 275.432C248.181 274.598 250.204 272.882 252.408 269.47C261.387 255.576 271.492 242.274 282.54 226.74L286.811 220.733L289.4 227.635C295.944 245.098 301.502 259.932 307.421 275.726C312.548 269.93 316.911 264.662 319.741 259.024C323.185 252.164 324.331 244.791 321.091 235.313C319.419 230.422 318.653 225.322 318.001 220.542C317.334 215.644 316.788 211.118 315.627 206.795C313.675 199.527 313.377 192.774 314.85 186.235C316.32 179.714 319.497 173.653 324.138 167.682C340.047 147.215 354.475 125.724 369.481 104.513C363.192 99.5087 357.951 97.2307 353.317 96.9769Z" fill="#FFB900"/>
</svg>
