<svg width="500" height="300" viewBox="0 0 500 300" fill="none" xmlns="http://www.w3.org/2000/svg">
<path d="M116.465 74.2069C108.464 72.7415 100.399 71.418 92.4007 69.7655C78.1321 66.8174 63.8279 63.7766 50.6613 57.2879C35.629 49.8797 22.7405 39.7054 13.2266 25.7054C11.1729 22.6832 9.74927 19.2328 8.0354 15.9796C8.3219 15.7223 8.60839 15.465 8.89489 15.2077C9.90168 15.6029 10.9546 15.9095 11.9086 16.4061C44.3755 33.3066 78.2361 46.9774 112.454 59.8203C113.063 60.0487 113.872 60.0828 114.252 60.5078C114.944 61.2843 115.385 62.2857 115.931 63.1933C114.975 63.5232 113.916 64.3039 113.079 64.1133C104.843 62.2392 96.5589 60.4987 88.4563 58.1425C77.2268 54.8769 66.1428 51.1114 54.9934 47.5696C54.1679 47.3074 53.318 47.1222 52.4795 46.9011C52.3248 47.275 52.1702 47.6488 52.0156 48.0227C58.0901 50.7218 63.9601 54.1142 70.2808 55.9785C84.223 60.0906 98.3724 63.5126 112.481 67.0412C116.837 68.1307 117.687 69.1331 116.465 74.2069Z" fill="#FFB900"/>
<path d="M122.583 92.5791C122.141 92.7405 121.682 93.045 121.215 93.0586C101.665 93.6288 82.304 93.1762 63.5432 86.3066C46.4521 80.0484 33.0096 69.4224 22.5986 54.6947C22.1508 54.0613 21.7622 53.3815 21.4021 52.6939C21.3065 52.5114 21.4192 52.2198 21.4715 51.4806C23.7128 52.3636 25.8196 53.2246 27.9484 54.0274C49.1169 62.0101 70.4045 69.644 92.8094 73.4369C99.837 74.6265 106.972 75.3464 114.089 75.7762C117.93 76.0082 118.877 77.458 117.888 81.2335C99.8182 83.0483 82.1772 79.8954 64.6177 75.7807C64.5266 76.1548 64.4354 76.5289 64.3442 76.903C67.4414 78.0054 70.4808 79.3227 73.6457 80.173C87.3636 83.8581 101.241 86.5004 115.547 86.2213C120.492 86.1247 121.225 86.897 122.583 92.5791Z" fill="#155DFC"/>
<path d="M126.942 100.02C111.3 102.698 95.4962 101.786 79.7043 101.165C79.6346 101.523 79.5648 101.881 79.4951 102.239C81.1092 102.654 82.7008 103.242 84.3411 103.455C96.6524 105.058 108.97 105.177 121.239 103.102C128.138 101.935 128.119 101.826 132.09 108.647C130.86 108.868 129.827 109.172 128.781 109.222C110.305 110.12 91.8459 109.907 73.5478 107.004C59.7541 104.816 47.2274 99.7897 38.1477 88.4453C36.7121 86.6516 35.5205 84.6627 33.7957 82.1523C35.1185 82.2726 35.7069 82.2062 36.2042 82.3885C62.7654 92.1209 90.2256 96.2965 118.455 95.7393C120.145 95.706 121.835 95.6151 123.524 95.6341C126.752 95.6703 126.888 95.8542 126.942 100.02Z" fill="#155DFC"/>
<path d="M56.9883 109.048C65.3782 110.397 73.1418 112.544 80.949 112.717C98.0686 113.096 115.21 112.476 132.343 112.255C133.121 112.245 133.975 111.917 134.659 112.144C135.751 112.505 136.73 113.208 137.757 113.767C136.848 114.44 135.992 115.607 135.023 115.711C124.18 116.871 113.327 117.965 102.459 118.857C98.5365 119.179 94.5653 118.909 90.6337 119.701C107.189 123.141 123.578 119.199 140.031 118.135L140.315 119.21C139.272 119.62 138.263 120.187 137.182 120.415C119.559 124.139 101.788 126.609 83.7751 124.494C78.0675 123.824 72.3925 121.957 66.9899 119.888C62.284 118.085 59.027 114.286 56.9883 109.048Z" fill="#155DFC"/>
<path d="M98.4735 130.66C115.154 128.091 131.306 125.604 147.457 123.116L147.889 125.016C138.584 128.197 129.279 131.379 119.974 134.56L120.137 135.567C121.696 135.458 123.315 135.582 124.804 135.202C132.473 133.241 140.124 131.207 147.746 129.072C150.031 128.432 152.057 127.835 153.311 131.362C150.702 132.42 148.173 133.594 145.548 134.482C138.669 136.811 131.849 139.414 124.822 141.176C114.189 143.841 104.914 140.444 99.5568 132.647C99.2048 132.134 98.9551 131.551 98.4735 130.66Z" fill="#155DFC"/>
<path d="M120.728 60.6321C127.734 62.9193 134.885 64.8273 141.617 67.7125C143.633 68.5764 144.479 72.1695 146.471 75.5457C142.847 75.2726 140.597 75.1031 138.348 74.9336C138.265 75.1596 138.182 75.3856 138.099 75.6117C139.903 76.3047 141.771 76.8695 143.491 77.7298C144.968 78.4685 146.276 79.5452 147.393 80.8345C132.814 82.6796 117.857 71.2132 120.728 60.6321Z" fill="#FFB900"/>
<path d="M150.972 90.2895C149.31 90.6979 147.874 91.0505 145.853 91.5472C148.686 93.7489 154.18 91.4538 153.65 97.0843C142.677 101.027 125.223 90.8574 124.1 79.3994C126.524 80.2629 128.723 81.2418 131.024 81.8264C136.05 83.1038 141.091 84.39 146.196 85.2585C149.095 85.7516 150.645 86.9729 150.972 90.2895Z" fill="#FFB900"/>
<path d="M132.636 144.788C141.717 141.128 150.662 137.524 159.608 133.919L160.248 135.323C155.06 138.03 149.872 140.737 144.684 143.444C144.737 143.712 144.791 143.979 144.844 144.247C145.595 144.247 146.441 144.476 147.083 144.21C151.626 142.329 156.09 140.246 160.671 138.467C161.787 138.034 163.249 138.493 164.551 138.541C164.135 139.78 164.089 141.669 163.242 142.15C158.623 144.776 153.969 147.481 149.02 149.348C142.505 151.807 136.583 149.953 132.636 144.788Z" fill="#155DFC"/>
<path d="M132.827 98.2443C141.575 98.7075 149.784 99.8656 158.625 103.316C156.505 104.396 155.332 104.994 153.983 105.68C156.659 108.31 162.618 103.725 163.51 110C152.407 113.875 137.033 108.164 132.827 98.2443Z" fill="#FFB900"/>
<path d="M159.804 97.2788H190.021C190.092 97.617 190.163 97.9552 190.234 98.2934L185.704 100.305C185.697 100.511 185.69 100.717 185.684 100.923C187.579 101.091 189.474 101.259 191.988 101.482C189.967 105.9 185.996 104.988 182.99 105.493C173.23 107.131 163.232 103.33 159.804 97.2788Z" fill="#FFB900"/>
<path d="M153.341 83.0035C161.914 84.7847 169.741 86.4109 178.014 88.1299C177.301 89.0863 176.833 89.7135 176.313 90.4107C179.522 92.1318 183.837 89.4452 186.74 92.8712C179.214 98.2298 158.207 92.3112 153.341 83.0035Z" fill="#FFB900"/>
<path d="M146.659 116.596C153.475 115.342 160.291 114.087 167.107 112.833C167.206 113.193 167.304 113.554 167.403 113.914C163.741 114.966 160.08 116.018 156.418 117.07C156.459 117.493 156.501 117.917 156.542 118.341C158.549 118.209 160.582 118.235 162.554 117.901C164.725 117.533 166.82 116.707 168.993 116.358C169.633 116.255 170.626 116.948 171.063 117.558C171.29 117.875 170.822 119.231 170.389 119.399C163.789 121.955 157.106 124.382 150.077 121.005C148.669 120.328 147.588 118.972 146.356 117.929C146.457 117.485 146.558 117.04 146.659 116.596Z" fill="#FFB900"/>
<path d="M164.815 128.133C170.823 129.811 174.338 123.388 180.214 124.678C173.477 132.718 162.096 134.874 156.072 129.144C162.66 126.427 168.912 123.848 175.164 121.27C175.316 121.58 175.467 121.891 175.619 122.202C172.214 124.07 168.81 125.939 164.815 128.133Z" fill="#FFB900"/>
<path d="M176.825 144.969C174.403 150.78 167.036 155.596 162.246 154.865C160.802 154.644 159.535 153.261 158.187 152.41C158.987 151.339 159.598 150.023 160.617 149.237C167.503 143.923 167.531 143.959 171.586 144.014C170.5 145.672 169.591 147.06 168.682 148.448C168.856 148.709 169.03 148.971 169.203 149.233C171.471 147.964 173.739 146.695 176.825 144.969Z" fill="#155DFC"/>
<path d="M192.02 109.876C185.922 115.292 173.305 115.164 167.739 109.503C175.167 108.566 182.198 107.678 189.62 106.742C188.556 107.729 187.641 108.578 186.243 109.876H192.02Z" fill="#FFB900"/>
<path d="M181.978 128.371C180.418 130.866 179.502 132.332 178.586 133.797C178.775 134.069 178.964 134.341 179.153 134.614C181.643 133.161 184.134 131.707 186.878 130.106C185.393 135.656 175.713 140.908 170.923 139.147C168.446 138.236 168.07 136.623 170.072 134.956C172.266 133.13 174.489 131.305 176.884 129.768C178.015 129.043 179.58 128.994 181.978 128.371Z" fill="#FFB900"/>
<path d="M183.737 147.948C183.422 149.006 183.107 150.063 182.473 152.193C184.904 150.477 186.518 149.337 188.446 147.975C188.111 155.59 179.479 161.268 172.266 158.722C175.871 154.746 179.321 150.941 182.771 147.135L183.737 147.948Z" fill="#155DFC"/>
<path d="M180.515 143.019C183.541 139.597 186.229 136.558 188.916 133.52L189.625 133.871C189.453 134.943 189.281 136.015 188.959 138.028C191.045 136.461 192.476 135.386 194.061 134.195C194.24 140.019 187.349 144.638 180.515 143.019Z" fill="#FFB900"/>
<path d="M195.176 116.81C188.893 121.846 182.216 121.965 176.175 117.344C178.767 116.834 180.827 116.465 182.869 116.016C184.879 115.573 186.87 115.048 189.174 114.485C189.039 115.536 188.936 116.329 188.795 117.428C190.778 117.236 192.496 117.069 195.176 116.81Z" fill="#FFB900"/>
<path d="M384.137 73.8569C383.382 69.3046 385.021 67.6586 388.897 66.963C406.705 63.7675 424.257 59.5781 440.795 51.958C442.916 50.9811 444.954 49.8255 447.016 48.7247C447.547 48.4412 448.021 48.0512 448.192 46.9092C442.859 48.6572 437.581 50.6031 432.181 52.1152C417.68 56.1763 403.136 60.0864 388.575 63.9314C387.487 64.2188 386.136 63.5133 384.908 63.2693C385.81 62.2233 386.511 60.6329 387.646 60.2104C422.491 47.2384 456.874 33.2088 489.887 16.0012C490.534 15.6637 491.28 15.5154 492.805 15C491.937 17.2789 491.47 18.9759 490.679 20.5053C483.842 33.725 472.969 43.0781 460.939 51.2808C449.361 59.1746 436.266 63.4321 422.802 66.5323C411.414 69.1544 399.894 71.2054 388.424 73.4661C387.077 73.7316 385.676 73.7239 384.137 73.8569Z" fill="#FFB900"/>
<path d="M378.328 92.9046C379.768 86.8964 380.514 86.1395 385.608 86.218C401.381 86.4608 416.622 83.4814 431.597 78.8265C433.135 78.3484 434.61 77.6654 436.114 77.0775C436.017 76.7478 435.92 76.418 435.822 76.0883C434.518 76.3171 433.199 76.4829 431.912 76.7844C416.913 80.2984 401.772 82.4277 386.316 81.5709C384.472 81.4688 382.257 81.5318 382.853 78.7786C383.084 77.7128 384.406 76.1088 385.288 76.0702C417.8 74.6491 447.844 63.8023 477.675 52.1058C478.131 51.9269 478.648 51.9032 479.831 51.6707C479.178 52.965 478.852 53.8417 478.34 54.5915C461.949 78.6128 438.199 89.5298 410.148 92.3155C401.122 93.2118 391.978 92.9341 382.887 93.1538C381.49 93.1876 380.087 93.0069 378.328 92.9046Z" fill="#155DFC"/>
<path d="M421.633 101.443C418.599 101.443 415.563 101.504 412.531 101.433C400.851 101.159 389.17 100.916 377.498 100.439C376.268 100.389 374.148 98.9446 374.08 98.0271C373.895 95.497 376.137 95.5606 378.012 95.6513C402.787 96.8505 427.044 93.5532 450.914 87.1024C455.999 85.7281 460.961 83.8973 465.98 82.2767C466.252 82.5447 466.524 82.8126 466.796 83.0806C464.269 86.2214 461.994 89.6112 459.169 92.4555C451.276 100.404 441.277 104.505 430.508 106.431C410.828 109.951 390.94 110.135 371.026 109.085C370.547 109.06 370.079 108.827 369.598 108.688C371.704 102.488 372.595 101.931 378.727 102.944C392.437 105.208 406.14 105.379 419.835 102.829C420.451 102.714 421.051 102.508 421.658 102.345C421.65 102.044 421.641 101.744 421.633 101.443Z" fill="#155DFC"/>
<path d="M443.968 109.015C442.053 114.219 438.895 118.039 434.367 119.649C427.83 121.974 420.991 124.091 414.134 124.744C396.91 126.382 379.896 123.985 363.086 120.15C362.37 119.987 361.706 119.602 361.05 118.343C362.416 118.343 363.79 118.248 365.147 118.358C377.444 119.352 389.733 120.464 402.039 121.336C404.659 121.522 407.339 120.87 409.992 120.605C409.978 120.171 409.965 119.738 409.951 119.305C402.163 118.989 394.354 118.934 386.594 118.283C378.772 117.627 371 116.379 363.216 115.391C363.412 111.714 365.511 112.054 367.467 112.148C378.63 112.686 389.787 113.42 400.956 113.706C414.395 114.049 427.699 112.727 440.753 109.323C441.588 109.105 442.491 109.148 443.968 109.015Z" fill="#155DFC"/>
<path d="M348.114 129.402C349.771 129.28 351.539 128.723 353.066 129.111C359.991 130.873 366.826 132.984 373.74 134.787C376.073 135.396 378.547 135.467 380.956 135.784C381.067 135.397 381.179 135.01 381.29 134.623C371.977 131.411 362.664 128.199 353.351 124.987C353.404 124.563 353.457 124.139 353.51 123.715C354.765 123.559 356.066 123.107 357.269 123.29C371.912 125.518 386.54 127.838 401.17 130.146C401.411 130.184 401.629 130.364 401.856 130.48C400.823 135.529 394.206 141.153 387.405 141.443C381.921 141.677 376.194 141.165 370.902 139.755C363.655 137.823 356.715 134.737 349.656 132.111C349.094 131.902 348.632 131.424 348.124 131.071C348.121 130.514 348.117 129.958 348.114 129.402Z" fill="#155DFC"/>
<path d="M353.834 81.1796C355.523 76.5479 360.605 78.0148 363.339 74.8893C360.679 75.0711 358.442 75.224 356.176 75.3789C356.627 69.5696 357.85 67.9911 362.908 66.3424C368.57 64.4971 374.222 62.6196 380.331 60.6069C381.738 64.2315 380.547 67.2915 378.825 70.1049C374.787 76.7026 362.826 82.0648 353.834 81.1796Z" fill="#FFB900"/>
<path d="M377.014 80.1328C374.733 91.3959 359.229 100.459 347.541 97.2251C346.902 91.5611 352.531 93.8659 355.101 91.4775C353.289 91.0446 351.886 90.7092 350.315 90.3339C350.58 87.2024 351.934 85.8572 355.069 85.2561C362.39 83.8526 369.606 81.8993 377.014 80.1328Z" fill="#FFB900"/>
<path d="M341.746 134.075C350.571 137.599 359.396 141.122 368.827 144.888C365.661 148.537 362.307 150.285 358.061 150.244C349.931 150.165 343.634 145.563 337.211 141.456C336.558 141.038 337.123 138.716 337.123 136.442C343.91 140.39 349.473 143.841 356.086 144.479C356.245 144.149 356.405 143.819 356.564 143.489C351.426 140.766 346.287 138.042 341.149 135.318C341.348 134.904 341.547 134.489 341.746 134.075Z" fill="#155DFC"/>
<path d="M337.697 110.004C338.996 104.007 344.27 108.065 347.235 105.736C345.954 105.069 344.81 104.473 342.625 103.334C351.365 99.8112 359.598 98.9263 368.175 98.2097C365.276 108.005 348.366 113.587 337.697 110.004Z" fill="#FFB900"/>
<path d="M309.837 101.447C311.696 101.328 313.555 101.209 316.471 101.023C314.02 99.7171 312.485 98.8995 310.95 98.0819C311.042 97.8048 311.134 97.5277 311.226 97.2507H341.793C336.615 103.91 329.195 106.153 320.85 105.696C316.927 105.481 312.503 105.904 309.465 102.623C309.589 102.231 309.713 101.839 309.837 101.447Z" fill="#FFB900"/>
<path d="M347.912 83.0079C342.815 92.2399 323.379 97.8077 314.305 93.1385C317.223 89.4453 321.52 92.094 324.964 90.3832C324.482 89.8251 323.994 89.2601 323.063 88.182C331.279 86.4711 339.175 84.8271 347.912 83.0079Z" fill="#FFB900"/>
<path d="M344.814 116.975C341.147 116.002 337.48 115.029 333.814 114.057C333.9 113.676 333.987 113.296 334.073 112.916C340.909 114.143 347.745 115.369 354.58 116.595C354.742 117.033 354.903 117.472 355.064 117.91C353.053 119.256 351.212 121.115 348.998 121.85C342.831 123.898 336.975 121.748 331.239 119.605C330.693 119.401 330.032 118.004 330.247 117.61C330.578 117.006 331.687 116.381 332.353 116.486C334.779 116.869 337.136 117.695 339.564 118.07C341.238 118.329 342.984 118.12 344.699 118.12C344.737 117.738 344.775 117.357 344.814 116.975Z" fill="#FFB900"/>
<path d="M335.755 127.677C332.41 125.894 329.065 124.11 325.72 122.327C325.87 121.996 326.02 121.666 326.171 121.335C332.25 123.827 338.33 126.32 345.028 129.065C342.663 132.277 339.582 133.572 336.56 132.709C331.907 131.38 327.506 129.131 323.084 127.087C322.508 126.821 322.44 125.454 322.137 124.597C323.052 124.594 324.088 124.308 324.863 124.636C328.316 126.098 331.694 127.735 335.099 129.309C335.318 128.765 335.537 128.221 335.755 127.677Z" fill="#FFB900"/>
<path d="M330.752 143.647C332.194 144.136 333.789 144.38 335.044 145.167C337.233 146.54 339.291 148.156 341.238 149.861C341.985 150.515 342.836 151.848 342.628 152.587C342.38 153.47 341.111 154.53 340.171 154.654C338.435 154.883 336.505 154.823 334.853 154.283C330.523 152.868 327.239 150.013 324.474 146.622C324.734 146.238 324.995 145.853 325.255 145.469C327.429 146.743 329.604 148.018 331.778 149.292C331.993 149.069 332.209 148.847 332.424 148.624C331.713 147.255 331.003 145.887 330.292 144.518L330.752 143.647Z" fill="#155DFC"/>
<path d="M333.543 109.451C328.005 115.115 315.284 115.269 308.97 109.75C311.083 109.9 312.608 110.007 314.838 110.165C313.661 108.856 312.936 108.05 311.899 106.897C319.151 107.753 326.057 108.567 333.543 109.451Z" fill="#FFB900"/>
<path d="M314.564 130.291C316.993 131.733 319.422 133.176 321.851 134.618C322.116 134.353 322.381 134.088 322.646 133.824C321.759 132.422 320.872 131.02 319.233 128.43C321.562 129.062 323.134 129.145 324.299 129.876C326.701 131.384 328.868 133.264 331.166 134.945C333.503 136.654 332.687 138.164 330.588 138.859C328.967 139.395 326.938 139.479 325.297 139.022C320.638 137.722 316.736 135.157 313.895 131.243C314.118 130.926 314.341 130.608 314.564 130.291Z" fill="#FFB900"/>
<path d="M318.803 152.086C318.115 150.07 317.731 148.943 317.347 147.816C317.66 147.549 317.973 147.281 318.286 147.013C321.741 150.827 325.197 154.64 328.818 158.637C322.009 161.246 314.164 156.29 312.27 147.976C314.561 149.417 316.301 150.512 318.803 152.086Z" fill="#155DFC"/>
<path d="M306.503 133.845C308.642 135.422 310.111 136.506 312.391 138.186C311.92 136.155 311.684 135.134 311.447 134.113C311.683 133.92 311.919 133.727 312.155 133.535C314.87 136.579 317.585 139.622 320.364 142.737C314.833 145.027 308.214 141.049 306.503 133.845Z" fill="#FFB900"/>
<path d="M306.021 116.741C308.749 117.1 310.445 117.324 312.439 117.586C312.266 116.404 312.149 115.608 312.003 114.609C316.243 115.547 320.218 116.426 324.247 117.317C320.909 122.015 312.164 122.053 306.021 116.741Z" fill="#FFB900"/>
<path d="M56.9122 250.424C56.9122 255.938 54.4249 259.794 49.4503 261.992C45.7491 263.65 40.1769 264.478 32.7355 264.478C30.922 264.478 28.3585 264.421 25.0421 264.305C21.7257 264.189 19.4122 264.132 18.1017 264.132V284.375H8.09583V229.197H37.7091C50.5109 229.197 56.9122 233.612 56.9122 242.442V250.424ZM46.964 251.002V242.962C46.964 239.145 44.2833 237.236 38.924 237.236H18.1017V256.207H38.6925C44.2062 256.207 46.964 254.473 46.964 251.002Z" fill="#FFB900"/>
<path d="M88.1984 234.055C88.1984 235.405 87.6486 236.533 86.5499 237.439C85.4503 238.345 84.0714 238.798 82.4142 238.798C80.756 238.798 79.3488 238.326 78.1915 237.381C77.0353 236.436 76.4572 235.29 76.4572 233.939C76.4572 232.667 77.0538 231.559 78.2501 230.614C79.4445 229.669 80.795 229.197 82.299 229.197C83.9562 229.197 85.3536 229.669 86.4923 230.614C87.629 231.559 88.1984 232.706 88.1984 234.055ZM86.6945 284.375H78.1339V243.078H86.6945V284.375Z" fill="#155DFC"/>
<path d="M118.442 284.375H109.882V229.197H118.442V284.375Z" fill="#155DFC"/>
<path d="M186.631 274.196C186.631 277.204 185.31 279.652 182.669 281.541C180.027 283.431 176.817 284.375 173.038 284.375H157.133C153.508 284.375 150.374 283.392 147.733 281.426C145.092 279.459 143.772 277.05 143.772 274.196V252.795C143.772 249.479 145.082 246.992 147.705 245.334C150.057 243.83 153.276 243.078 157.364 243.078H173.038C176.972 243.078 180.211 243.908 182.756 245.565C185.338 247.3 186.631 249.71 186.631 252.795V274.196ZM178.128 272.345V254.877C178.128 251.561 176.142 249.903 172.171 249.903H158.463C154.336 249.903 152.274 251.561 152.274 254.877V271.94C152.274 275.681 154.336 277.55 158.463 277.55H172.171C176.142 277.55 178.128 275.815 178.128 272.345Z" fill="#155DFC"/>
<path d="M229.369 249.903H220.636V284.375H212.075V229.197H220.636V243.078H229.369V249.903Z" fill="#155DFC"/>
<path d="M322.943 237.236H308.252V284.375H298.304V237.236H283.612V229.197H322.943V237.236Z" fill="#155DFC"/>
<path d="M362.385 250.019C359.068 250.019 357.044 250.154 356.313 250.424C354.422 250.886 353.478 252.14 353.478 254.183V284.375H344.976V253.952C344.976 246.703 349.159 243.078 357.526 243.078H362.385V250.019Z" fill="#155DFC"/>
<path d="M427.392 273.849C427.392 276.625 426.187 279.074 423.776 281.194C421.366 283.315 418.427 284.375 414.956 284.375H397.894C394.346 284.375 391.271 283.258 388.668 281.021C386.066 278.785 384.764 276.201 384.764 273.27V268.296C384.764 263.091 386.615 259.447 390.317 257.364C393.17 255.784 397.584 254.993 403.562 254.993C405.143 254.993 407.668 255.061 411.139 255.195C414.609 255.331 417.173 255.398 418.831 255.398V252.795C418.831 252.063 418.523 251.417 417.906 250.857C417.289 250.299 416.537 250.019 415.651 250.019L384.764 249.903V243.078H415.072C418.851 243.078 421.848 243.927 424.066 245.623C426.283 247.32 427.392 249.614 427.392 252.506V273.849ZM418.831 273.502V266.734C418.831 265.462 418.262 264.412 417.125 263.582C415.987 262.753 414.589 262.339 412.932 262.339H399.281C397.623 262.339 396.206 262.753 395.03 263.582C393.854 264.412 393.267 265.462 393.267 266.734V273.502C393.267 276.201 395.599 277.55 400.265 277.55H411.891C416.518 277.55 418.831 276.201 418.831 273.502Z" fill="#155DFC"/>
<path d="M492.745 284.375H482.449L469.147 268.99L456.248 284.375H445.837L464.057 262.975L446.994 243.078H457.463L469.319 256.902L481.119 243.078H491.588L474.526 262.975L492.745 284.375Z" fill="#155DFC"/>
<path d="M250.42 46.851C215.158 46.851 186.572 75.4368 186.572 110.699C186.572 121.279 189.161 131.248 193.715 140.033L237.536 76.9625H266.978C274.227 76.9625 280.781 79.8997 285.531 84.6422C290.663 89.7821 293.681 97.0448 293.15 104.995C292.226 118.832 280.427 129.436 266.56 129.436L224.192 130.966L206.185 156.716C217.661 167.751 233.242 174.548 250.42 174.548C285.683 174.548 314.269 145.962 314.269 110.699C314.269 75.4368 285.683 46.851 250.42 46.851Z" fill="#155DFC"/>
<path d="M264.731 119.172C262.994 114.539 261.43 110.365 259.546 105.338C256.7 109.34 254.153 112.69 251.876 116.215C250.617 118.162 249.238 118.68 247 118.228C242.726 117.365 238.394 116.787 234.028 116.081C236.043 110.326 237.629 109.227 242.808 108.786C244.268 108.662 246.005 107.737 246.965 106.62C249.183 104.037 251.004 101.111 253.442 97.6835C248.769 97.5219 244.719 97.3819 240.258 97.2277C242.013 93.2957 243.747 90.0387 248.362 90.1245C257.373 90.292 261.711 84.8573 267.463 78.1104C269.074 76.2215 270.253 74.3767 271.939 72.8018C275.246 69.7142 278.311 69.8825 282.284 73.3681C278.282 78.9955 274.413 84.798 270.144 90.2897C267.905 93.1705 267.219 95.9538 268.147 99.4061C268.781 101.767 268.739 104.331 269.523 106.625C271.363 112.007 268.221 115.266 264.731 119.172Z" fill="#155DFC" stroke="#FFB900" stroke-width="3.34488" stroke-miterlimit="10"/>
</svg>
